<?xml version="1.0" encoding="UTF-8"?>
<svg id="Layer_2" data-name="Layer 2" xmlns="http://www.w3.org/2000/svg" viewBox="0 0 880.66 196.28">
  <defs>
    <style>
      .cls-1 {
        fill: #fff;
      }
    </style>
  </defs>
  <g id="Layer_1-2" data-name="Layer 1">
    <g>
      <path class="cls-1" d="M173.71,136.27l-28.1-16.22V46.9L63.48,0v31.86L0,68.51l.45,94.57,27.73-16.01,63.85,36.86,81.68-47.67ZM58.8,128.84l-27.34,15.96-.28-58.37,33.14-19.14-.14-31.07,50.32,28.73v38.27l27.36,15.62-49.91,29.13-33.14-19.14Z"/>
      <g>
        <g>
          <path class="cls-1" d="M248.73,144.61c-9.99,0-18.61-2.2-25.88-6.62-7.27-4.41-12.89-10.56-16.87-18.47-3.98-7.9-5.96-17.08-5.96-27.55s1.99-19.53,5.96-27.48c3.97-7.95,9.6-14.13,16.87-18.54,7.27-4.41,15.9-6.62,25.88-6.62,11.83,0,21.4,2.81,28.72,8.43,7.32,5.62,12,13.52,14.03,23.7h-14.54c-1.45-6.2-4.53-11.17-9.23-14.9-4.7-3.73-11.08-5.6-19.12-5.6-7.08,0-13.26,1.65-18.54,4.94-5.28,3.3-9.38,8-12.29,14.1-2.91,6.11-4.36,13.43-4.36,21.96s1.45,15.87,4.36,22.03c2.91,6.16,7,10.86,12.29,14.1,5.28,3.25,11.46,4.87,18.54,4.87,8.04,0,14.44-1.79,19.19-5.38,4.75-3.58,7.95-8.77,9.6-15.56h14.4c-2.13,10.47-6.88,18.52-14.25,24.14-7.37,5.62-16.96,8.43-28.79,8.43Z"/>
          <path class="cls-1" d="M304.86,142.86v-72.12h13.09v11.34c1.65-3.78,3.88-6.71,6.69-8.8,2.81-2.08,6.25-3.13,10.32-3.13h10.76v12.21h-12.07c-3.1,0-5.84.87-8.22,2.62-2.38,1.75-4.22,4.53-5.53,8.36-1.31,3.83-1.96,8.89-1.96,15.19v34.31h-13.09Z"/>
          <path class="cls-1" d="M383.23,144.61c-6.98,0-13.16-1.58-18.54-4.73-5.38-3.15-9.6-7.54-12.65-13.16-3.05-5.62-4.58-12.21-4.58-19.77s1.5-14.32,4.51-19.99c3-5.67,7.22-10.08,12.65-13.23,5.43-3.15,11.68-4.73,18.76-4.73s13.16,1.58,18.25,4.73c5.09,3.15,9.01,7.29,11.78,12.43,2.76,5.14,4.14,10.76,4.14,16.87v3.13c0,1.12-.05,2.3-.15,3.56h-60.2v-9.6h47.4c-.29-6.3-2.45-11.24-6.47-14.83-4.02-3.59-9.04-5.38-15.05-5.38-4.07,0-7.85.9-11.34,2.69-3.49,1.79-6.28,4.46-8.36,8-2.09,3.54-3.13,7.92-3.13,13.16v3.93c0,5.72,1.07,10.52,3.2,14.39,2.13,3.88,4.94,6.79,8.43,8.72,3.49,1.94,7.22,2.91,11.2,2.91,4.85,0,8.92-1.11,12.21-3.34,3.29-2.23,5.72-5.28,7.27-9.16h12.94c-1.26,4.36-3.34,8.34-6.25,11.92-2.91,3.59-6.57,6.4-10.98,8.43-4.41,2.04-9.43,3.05-15.05,3.05Z"/>
          <path class="cls-1" d="M454.77,144.61c-8.82,0-16.19-2.06-22.1-6.18-5.91-4.12-9.36-10.15-10.32-18.1h13.52c.77,4.17,2.86,7.47,6.25,9.89,3.39,2.42,7.75,3.64,13.09,3.64,5.04,0,8.92-1.07,11.63-3.2,2.71-2.13,4.07-4.85,4.07-8.14,0-2.42-.85-4.29-2.54-5.6-1.7-1.31-4.82-2.35-9.38-3.13-1.84-.39-3.81-.77-5.89-1.16-2.09-.39-4.05-.73-5.89-1.02-3.3-.68-6.57-1.79-9.82-3.34-3.25-1.55-5.94-3.73-8.07-6.54-2.13-2.81-3.2-6.45-3.2-10.91,0-6.2,2.37-11.39,7.12-15.56,4.75-4.17,11.24-6.25,19.48-6.25s14.54,1.82,19.77,5.45c5.24,3.63,8.19,9.28,8.87,16.94h-12.94c-.39-4.17-2.06-7.15-5.02-8.94-2.96-1.79-6.57-2.69-10.83-2.69s-7.59.92-10.25,2.76c-2.67,1.84-4,4.27-4,7.27,0,5.23,3.93,8.63,11.78,10.18,1.16.1,2.4.27,3.71.51,1.31.24,2.64.49,4,.73,1.36.24,2.57.46,3.63.65,2.33.39,4.75.94,7.27,1.67,2.52.73,4.89,1.79,7.12,3.2,2.23,1.41,4.05,3.3,5.45,5.67,1.4,2.38,2.11,5.4,2.11,9.09,0,4.46-1.16,8.43-3.49,11.92-2.33,3.49-5.62,6.23-9.89,8.21-4.27,1.99-9.36,2.98-15.27,2.98Z"/>
          <path class="cls-1" d="M528.64,144.61c-6.88,0-13.06-1.6-18.54-4.8-5.48-3.2-9.81-7.63-13.01-13.3-3.2-5.67-4.8-12.24-4.8-19.7s1.6-14.15,4.8-19.77c3.2-5.62,7.54-10.03,13.01-13.23,5.48-3.2,11.66-4.8,18.54-4.8,8.72,0,16.02,2.25,21.88,6.76,5.86,4.51,9.62,10.54,11.27,18.1h-13.52c-.97-4.26-3.27-7.61-6.91-10.03-3.64-2.42-7.88-3.64-12.72-3.64-3.98,0-7.73,1.02-11.27,3.05-3.54,2.04-6.38,5.02-8.51,8.94-2.13,3.93-3.2,8.8-3.2,14.61s1.07,10.57,3.2,14.54c2.13,3.98,4.97,6.98,8.51,9.01,3.54,2.04,7.29,3.05,11.27,3.05,4.85,0,9.09-1.19,12.72-3.56,3.63-2.37,5.94-5.74,6.91-10.11h13.52c-1.55,7.37-5.28,13.35-11.2,17.96-5.91,4.61-13.23,6.91-21.96,6.91Z"/>
          <path class="cls-1" d="M606.43,144.61c-6.98,0-13.16-1.58-18.54-4.73-5.38-3.15-9.6-7.54-12.65-13.16-3.05-5.62-4.58-12.21-4.58-19.77s1.5-14.32,4.51-19.99c3-5.67,7.22-10.08,12.65-13.23,5.43-3.15,11.68-4.73,18.76-4.73s13.16,1.58,18.25,4.73c5.09,3.15,9.01,7.29,11.78,12.43,2.76,5.14,4.14,10.76,4.14,16.87v3.13c0,1.12-.05,2.3-.15,3.56h-60.2v-9.6h47.4c-.29-6.3-2.45-11.24-6.47-14.83-4.02-3.59-9.04-5.38-15.05-5.38-4.07,0-7.85.9-11.34,2.69-3.49,1.79-6.28,4.46-8.36,8-2.09,3.54-3.13,7.92-3.13,13.16v3.93c0,5.72,1.07,10.52,3.2,14.39,2.13,3.88,4.94,6.79,8.43,8.72,3.49,1.94,7.22,2.91,11.2,2.91,4.85,0,8.92-1.11,12.21-3.34,3.29-2.23,5.72-5.28,7.27-9.16h12.94c-1.26,4.36-3.34,8.34-6.25,11.92-2.91,3.59-6.57,6.4-10.98,8.43-4.41,2.04-9.43,3.05-15.05,3.05Z"/>
          <path class="cls-1" d="M654.27,142.86v-72.12h13.09v11.92c2.33-4.26,5.62-7.61,9.89-10.03,4.26-2.42,9.11-3.64,14.54-3.64,8.53,0,15.32,2.62,20.36,7.85,5.04,5.23,7.56,13.28,7.56,24.14v41.88h-13.09v-40.57c0-7.37-1.53-12.89-4.58-16.58-3.05-3.68-7.59-5.53-13.59-5.53s-11.15,2.21-15.12,6.62c-3.98,4.41-5.96,10.64-5.96,18.68v37.37h-13.09Z"/>
          <path class="cls-1" d="M757.5,142.86c-4.07,0-7.51-.51-10.32-1.53-2.81-1.02-4.92-2.93-6.33-5.74-1.41-2.81-2.11-6.78-2.11-11.92v-41.88h-12.5v-11.05h12.5v-17.59h13.09v17.59h20.36v11.05h-20.36v39.84c0,3.1.24,5.38.73,6.83.48,1.45,1.5,2.35,3.05,2.69,1.55.34,3.78.51,6.69.51h8.87v11.2h-13.67Z"/>
          <path class="cls-1" d="M782.37,56.93v-15.99h15.85v15.99h-15.85ZM783.82,142.86v-72.12h13.09v72.12h-13.09Z"/>
          <path class="cls-1" d="M835.88,144.61c-5.82,0-10.71-1-14.69-2.98-3.98-1.99-6.96-4.65-8.94-8-1.99-3.34-2.98-6.91-2.98-10.69,0-7.85,2.84-13.83,8.51-17.96,5.67-4.12,13.11-6.18,22.32-6.18,4.07,0,7.75.29,11.05.87,3.29.58,6.01,1.26,8.14,2.04v-3.2c0-6.2-1.62-10.88-4.87-14.03-3.25-3.15-7.59-4.73-13.01-4.73-4.46,0-8.31.92-11.56,2.76-3.25,1.84-5.26,4.94-6.03,9.31h-13.09c.58-5.14,2.35-9.4,5.31-12.8,2.96-3.39,6.66-5.91,11.12-7.56,4.46-1.65,9.21-2.47,14.25-2.47,10.27,0,18,2.69,23.19,8.07,5.18,5.38,7.78,12.53,7.78,21.45v21.66c0,3.49.22,6.06.65,7.71.44,1.65,1.19,2.67,2.25,3.05,1.07.39,2.52.58,4.36.58h1.02v11.34h-2.76c-4.75,0-8.63-.77-11.63-2.33-3.01-1.55-5.04-4.65-6.11-9.31-2.23,3.78-5.31,6.96-9.23,9.52-3.93,2.57-8.94,3.85-15.05,3.85ZM837.91,133.99c4.26,0,7.92-1.07,10.98-3.2,3.05-2.13,5.45-4.94,7.2-8.43,1.75-3.49,2.71-7.17,2.91-11.05-2.23-.68-4.94-1.28-8.14-1.82-3.2-.53-6.4-.8-9.6-.8-6.59,0-11.37,1.29-14.32,3.85-2.96,2.57-4.43,5.79-4.43,9.67,0,3.39,1.33,6.21,4,8.43,2.67,2.23,6.47,3.34,11.41,3.34Z"/>
        </g>
        <g>
          <path class="cls-1" d="M500.36,195.87v-24.03h3.09v24.03h-3.09Z"/>
          <path class="cls-1" d="M529.33,195.87v-24.03h3.09l12.6,18.91v-18.91h3.09v24.03h-3.09l-12.6-18.95v18.95h-3.09Z"/>
          <path class="cls-1" d="M584.19,196.28c-2.36,0-4.39-.52-6.11-1.56-1.72-1.04-3.04-2.49-3.98-4.36s-1.41-4.03-1.41-6.5.47-4.61,1.41-6.49c.94-1.88,2.27-3.33,3.98-4.38,1.72-1.04,3.75-1.56,6.11-1.56,2.79,0,5.05.66,6.78,1.99s2.83,3.19,3.31,5.6h-3.43c-.34-1.46-1.07-2.64-2.18-3.52-1.11-.88-2.61-1.32-4.51-1.32-1.67,0-3.13.39-4.38,1.17-1.25.78-2.21,1.89-2.9,3.33-.69,1.44-1.03,3.17-1.03,5.18s.34,3.75,1.03,5.2c.69,1.45,1.65,2.56,2.9,3.33,1.25.77,2.71,1.15,4.38,1.15,1.9,0,3.41-.42,4.53-1.27,1.12-.85,1.88-2.07,2.27-3.67h3.4c-.5,2.47-1.63,4.37-3.36,5.7-1.74,1.33-4,1.99-6.8,1.99Z"/>
          <path class="cls-1" d="M618.76,195.87v-24.03h14.97v2.54h-11.88v8.14h10.85v2.47h-10.85v8.34h11.88v2.54h-14.97Z"/>
          <path class="cls-1" d="M658.58,195.87v-24.03h3.09l12.6,18.91v-18.91h3.09v24.03h-3.09l-12.6-18.95v18.95h-3.09Z"/>
          <path class="cls-1" d="M709.31,195.87v-21.49h-7.14v-2.54h17.37v2.54h-7.14v21.49h-3.09Z"/>
          <path class="cls-1" d="M744.33,195.87v-24.03h3.09v24.03h-3.09Z"/>
          <path class="cls-1" d="M781.2,195.87l-8.99-24.03h3.33l7.48,20.77,7.55-20.77h3.26l-8.99,24.03h-3.64Z"/>
          <path class="cls-1" d="M827.26,196.28c-2.36,0-4.43-.52-6.21-1.56-1.79-1.04-3.17-2.49-4.17-4.36-1-1.87-1.49-4.03-1.49-6.5s.5-4.61,1.49-6.47c1-1.87,2.39-3.32,4.17-4.38,1.79-1.05,3.86-1.58,6.21-1.58s4.46.53,6.23,1.58c1.77,1.05,3.16,2.51,4.15,4.38,1,1.87,1.49,4.02,1.49,6.47s-.5,4.64-1.49,6.5c-1,1.87-2.38,3.32-4.15,4.36-1.77,1.04-3.85,1.56-6.23,1.56ZM827.26,193.53c1.74,0,3.26-.38,4.57-1.15,1.3-.77,2.32-1.88,3.05-3.33.73-1.45,1.1-3.19,1.1-5.2s-.37-3.74-1.1-5.18c-.73-1.44-1.75-2.55-3.05-3.33-1.3-.78-2.83-1.17-4.57-1.17s-3.23.39-4.55,1.17c-1.32.78-2.33,1.89-3.06,3.33-.72,1.44-1.08,3.17-1.08,5.18s.36,3.75,1.08,5.2c.72,1.45,1.74,2.56,3.06,3.33,1.32.77,2.83,1.15,4.55,1.15Z"/>
          <path class="cls-1" d="M871.31,196.28c-1.21,0-2.37-.16-3.47-.48s-2.08-.8-2.95-1.44c-.87-.64-1.57-1.46-2.11-2.45-.54-1-.84-2.17-.91-3.52h3.02c.11,1.24.47,2.24,1.06,3,.59.77,1.37,1.33,2.32,1.68.95.36,1.97.53,3.07.53,1.03,0,1.98-.15,2.85-.45.87-.3,1.56-.77,2.08-1.42s.77-1.49.77-2.52c0-.89-.26-1.68-.77-2.37s-1.46-1.16-2.83-1.41l-4.81-.89c-1.74-.32-3.15-1.04-4.22-2.15-1.08-1.11-1.61-2.45-1.61-4.03,0-1.46.38-2.71,1.15-3.74.77-1.03,1.79-1.82,3.05-2.37,1.27-.55,2.64-.82,4.1-.82,1.56,0,2.95.27,4.19.81,1.24.54,2.24,1.34,3,2.4s1.22,2.39,1.36,3.96h-3.05c-.12-1.05-.42-1.91-.91-2.56s-1.13-1.14-1.9-1.46c-.78-.32-1.66-.48-2.64-.48s-1.84.15-2.64.45c-.8.3-1.45.74-1.96,1.34-.5.6-.76,1.35-.76,2.27s.34,1.72,1.03,2.35,1.6,1.06,2.75,1.29l4.53.82c1.94.37,3.43,1.10,4.45,2.2,1.02,1.1,1.53,2.52,1.53,4.26,0,1.24-.25,2.3-.74,3.19s-1.15,1.64-1.97,2.23c-.82.6-1.76,1.04-2.8,1.34-1.04.3-2.12.45-3.24.45Z"/>
        </g>
      </g>
    </g>
  </g>
</svg>
